<svg width="20" height="20" viewBox="0 0 20 20" fill="none" xmlns="http://www.w3.org/2000/svg">
<path id="fa-dribbble" d="M12.7398 17.5581C11.7699 17.9632 10.7141 18.1965 9.59691 18.1965C7.6449 18.1965 5.86476 17.4967 4.46521 16.355C4.46521 16.355 4.5757 16.4286 4.64936 16.49C6.19624 13.1262 10.9719 11.4565 10.9719 11.4565C10.9842 11.4565 11.0087 11.4443 11.021 11.4443C12.1505 14.3907 12.617 16.8461 12.7398 17.5581ZM10.4686 10.1061C10.3703 10.1429 10.2599 10.1675 10.1494 10.2043C10.1494 10.2043 5.80338 11.6039 3.60583 15.5202C2.32905 14.0961 1.54333 12.2054 1.54333 10.1429C1.54333 10.057 1.54333 9.97105 1.55561 9.88511C1.69066 9.88511 5.66833 9.98333 9.81789 8.74337C10.0511 9.19761 10.2721 9.65186 10.4686 10.1061ZM9.15494 7.50342C5.28775 8.52239 1.92392 8.48556 1.71521 8.48556C2.24311 5.99337 3.91276 3.9186 6.15941 2.86279C6.2699 3.01012 7.75539 5.02351 9.15494 7.50342ZM17.5523 11.4197C17.184 13.6664 15.9072 15.6061 14.1025 16.8215C14.0166 16.3427 13.5869 13.9733 12.5311 11.0637C15.1337 10.6586 17.3804 11.3706 17.5523 11.4197ZM7.66945 2.32262C7.65717 2.32262 7.6449 2.33489 7.6449 2.33489C7.65717 2.32262 7.65717 2.32262 7.66945 2.32262ZM14.9128 4.10275C14.8882 4.13958 13.7465 5.88288 10.7141 7.01235C9.33909 4.48333 7.81677 2.48221 7.69401 2.32262C8.30784 2.17529 8.94624 2.08936 9.59691 2.08936C11.6349 2.08936 13.5009 2.85052 14.9128 4.10275ZM17.6505 10.057C17.5523 10.0447 14.8145 9.44315 12.04 9.79918C11.9786 9.66413 11.9295 9.51681 11.8681 9.38177C11.6962 8.98891 11.5121 8.59605 11.3279 8.21547C14.5076 6.91413 15.7967 5.04806 15.8212 5.02351C16.9507 6.39851 17.6259 8.15409 17.6505 10.057ZM19.0255 10.1429C19.0255 4.93757 14.8023 0.714355 9.59691 0.714355C4.39155 0.714355 0.168335 4.93757 0.168335 10.1429C0.168335 15.3483 4.39155 19.5715 9.59691 19.5715C14.8023 19.5715 19.0255 15.3483 19.0255 10.1429Z" fill="#EBEAED"/>
</svg>
